<?xml version="1.0" encoding="utf-8"?>
<!-- Generator: Adobe Illustrator 25.0.0, SVG Export Plug-In . SVG Version: 6.00 Build 0)  -->
<svg version="1.1" id="Camada_1" xmlns="http://www.w3.org/2000/svg" xmlns:xlink="http://www.w3.org/1999/xlink" x="0px" y="0px"
	 viewBox="0 0 595.28 595.28" style="enable-background:new 0 0 595.28 595.28;" xml:space="preserve">
<style type="text/css">
	.st0{fill:#B1DFF3;}
	.st1{clip-path:url(#SVGID_2_);fill:#FFFFFF;stroke:#000000;stroke-width:2.9252;stroke-miterlimit:10;}
	.st2{fill:none;}
	.st3{font-family:'MyriadPro-Regular';}
	.st4{font-size:62.0983px;}
</style>
<circle class="st0" cx="386.65" cy="247" r="111.78"/>
<g>
	<defs>
		<circle id="SVGID_1_" cx="387.03" cy="246.34" r="112.48"/>
	</defs>
	<clipPath id="SVGID_2_">
		<use xlink:href="#SVGID_1_"  style="overflow:visible;"/>
	</clipPath>
	<path class="st1" d="M433.22,396.03H252.52V183.66c45.65,0,91.31,0,136.96,0c2.47-3.1,4.94-6.21,7.42-9.31c15.11,0,30.22,0,45.33,0
		c0,26.81,0,53.61,0,80.42c-3,0.2-6,0.39-9,0.59C433.22,302.24,433.22,349.14,433.22,396.03z"/>
</g>
<g>
	<path d="M464.63,173.78c19.64,19.64,19.64,51.47,0,71.11s-51.47,19.64-71.11,0s-19.64-51.47,0-71.11S444.99,154.14,464.63,173.78z
		 M398.56,178.82c-16.73,16.73-16.73,43.85,0,60.58c16.73,16.73,43.85,16.73,60.58,0c16.73-16.73,16.73-43.85,0-60.58
		C442.41,162.1,415.29,162.1,398.56,178.82z"/>
	<rect x="467.72" y="240.02" transform="matrix(0.7071 -0.7071 0.7071 0.7071 -40.0177 407.6478)" width="8.69" height="24.21"/>
	<path d="M545.48,322.16l-3.97,3.98c-1.81,1.81-4.75,1.81-6.56,0l-65.43-65.43c-1.81-1.81-1.81-4.75,0-6.56l3.98-3.97
		c1.81-1.81,4.75-1.81,6.56,0l65.43,65.43C547.29,317.41,547.29,320.34,545.48,322.16z"/>
</g>
<rect x="58.77" y="220.92" class="st2" width="374.45" height="242.8"/>
<text transform="matrix(1 0 0 1 117.5786 265.0068)"><tspan x="0" y="0" class="st3 st4">Nenhuma </tspan><tspan x="53.44" y="74.52" class="st3 st4">tarefa </tspan><tspan x="-2.08" y="149.04" class="st3 st4">registrada</tspan></text>
</svg>
