<?xml version="1.0" encoding="utf-8"?>
<!-- Generator: Adobe Illustrator 25.0.0, SVG Export Plug-In . SVG Version: 6.00 Build 0)  -->
<svg version="1.1" id="Camada_1" xmlns="http://www.w3.org/2000/svg" xmlns:xlink="http://www.w3.org/1999/xlink" x="0px" y="0px"
	 viewBox="0 0 595.28 595.28" style="enable-background:new 0 0 595.28 595.28;" xml:space="preserve">
<style type="text/css">
	.st0{fill:#010202;stroke:#010202;stroke-width:0.7784;stroke-miterlimit:10;}
	.st1{fill:#010202;stroke:#010202;stroke-width:1.1312;stroke-miterlimit:10;}
</style>
<path class="st0" d="M470.28,270.69c-14.79,84.29-29.58,168.59-44.36,252.88c-1.32,7.52-7.85,13-15.48,13H210.28
	c-7.57,0-14.07-5.4-15.45-12.84c-15.7-84.29-31.4-168.59-47.1-252.88c-1.8-9.67,5.62-18.6,15.45-18.6H454.8
	C464.56,252.25,471.97,261.06,470.28,270.69z M252.54,508.48L218,289.45c-0.81-5.11-5.6-8.59-10.7-7.79l-0.91,0.14
	c-5.11,0.81-8.59,5.6-7.79,10.7l34.54,219.03c0.81,5.11,5.6,8.59,10.7,7.79l0.91-0.14C249.85,518.37,253.34,513.58,252.54,508.48z
	 M376.34,516.85l0.91,0.14c5.11,0.81,9.9-2.68,10.7-7.79l34.54-219.03c0.81-5.11-2.68-9.9-7.79-10.7l-0.91-0.14
	c-5.11-0.81-9.9,2.68-10.7,7.79l-34.54,219.03C367.74,511.26,371.23,516.05,376.34,516.85z M309.11,518.45h0.92
	c5.17,0,9.36-4.19,9.36-9.36V287.36c0-5.17-4.19-9.36-9.36-9.36h-0.92c-5.17,0-9.36,4.19-9.36,9.36V509.1
	C299.75,514.26,303.94,518.45,309.11,518.45z"/>
<g>
	<path class="st0" d="M130.1,256.3L447.19,91.67l-16.14-31.09l-31.09,16.14l-9.6-18.49c-1.83-3.53-6.17-4.9-9.7-3.07L139.72,180.26
		c-4.19,2.17-5.82,7.33-3.65,11.52l8.97,17.28l-31.09,16.14L130.1,256.3z"/>
	
		<rect x="207.4" y="96.07" transform="matrix(0.8875 -0.4608 0.4608 0.8875 -24.081 131.8777)" class="st1" width="101.33" height="38.38"/>
</g>
</svg>
