<?xml version="1.0" encoding="utf-8"?>
<!-- Generator: Adobe Illustrator 25.0.0, SVG Export Plug-In . SVG Version: 6.00 Build 0)  -->
<svg version="1.1" id="Camada_1" xmlns="http://www.w3.org/2000/svg" xmlns:xlink="http://www.w3.org/1999/xlink" x="0px" y="0px"
	 viewBox="0 0 595.28 595.28" style="enable-background:new 0 0 595.28 595.28;" xml:space="preserve">
<style type="text/css">
	.st0{fill:#FFFFFF;stroke:#010202;stroke-width:14.2263;stroke-miterlimit:10;}
	.st1{fill:#FED997;stroke:#010202;stroke-width:15.4848;stroke-miterlimit:10;}
	.st2{fill:#010202;}
	.st3{fill:#FECB37;stroke:#010202;stroke-width:15.4848;stroke-miterlimit:10;}
	.st4{fill:#D72416;stroke:#D72416;stroke-width:2.5808;stroke-miterlimit:10;}
	.st5{fill:none;stroke:#010202;stroke-width:15.4848;stroke-miterlimit:10;}
</style>
<g>
	<path class="st0" d="M467.83,490.48H133.64c-11.43,0-20.69-9.26-20.69-20.69V135.6c0-11.43,9.26-20.69,20.69-20.69h334.19
		c11.43,0,20.69,9.26,20.69,20.69v334.19C488.53,481.21,479.26,490.48,467.83,490.48z"/>
	<g>
		<path class="st1" d="M321.34,359l-120.2,51.39c-0.79,0.34-1.61-0.43-1.32-1.25l45.82-125.75c0.29-0.8,1.31-1.03,1.92-0.42
			l74.14,74.14C322.29,357.69,322.1,358.68,321.34,359z"/>
		<g>
			<path class="st2" d="M225.16,368.67c5.98,4.38,11.97,8.77,17.95,13.15c-4.49-0.02-7.47,4.52-11.39,6.7
				c-5.95,3.32-14.23,1.17-19.39,5.62c1.2,1.43,3.65,0.96,4.92-0.41c1.27-1.37,1.69-3.28,2.21-5.07c1.29-4.5,3.49-8.83,6.91-12.03
				c0.62-0.58,1.35-1.15,2.19-1.17c1.96-0.06,2.7,2.45,3.35,4.3c0.65,1.85,3.32,3.55,4.25,1.82"/>
			<g>
				<path class="st2" d="M221.9,374.24c5.98,4.38,11.97,8.77,17.95,13.15c1.09-4.01,2.17-8.02,3.26-12.02
					c-4.44,0.09-7.84,2.25-11.16,4.97c-0.55,0.45-1.09,0.92-1.65,1.37c-0.28,0.23-0.56,0.44-0.83,0.67
					c1.48-1.23,0.53-0.41,0.17-0.17c-0.58,0.4-1.19,0.73-1.81,1.07c-1.1,0.6,1.34-0.45,0.23-0.1c-0.4,0.12-0.79,0.27-1.19,0.38
					c-0.7,0.19-1.4,0.35-2.12,0.48c-0.36,0.07-0.72,0.12-1.08,0.18c-1.58,0.24,1.36-0.16,0.08-0.01c-1.91,0.23-3.82,0.45-5.71,0.75
					c-3.86,0.62-7.25,2.12-10.26,4.61c-1.15,0.96-1.96,3.1-1.89,4.56c0.08,1.73,0.67,3.29,1.89,4.56
					c4.91,5.14,13.23,2.49,16.13-3.36c1.11-2.23,1.59-4.62,2.41-6.94c0.08-0.22,0.68-1.37,0.59-1.55c-0.38,0.9-0.44,1.04-0.15,0.4
					c0.09-0.19,0.18-0.38,0.27-0.56c0.45-0.93,0.96-1.83,1.52-2.7c0.07-0.11,0.95-1.35,0.94-1.35c-0.59,0.76-0.68,0.87-0.24,0.34
					c0.09-0.1,0.18-0.21,0.27-0.31c0.36-0.41,0.74-0.81,1.13-1.2c0.19-0.18,0.38-0.36,0.57-0.53c-0.84,0.6-0.97,0.72-0.41,0.37
					c-1.87,0.97-3.86,0.68-5.33-0.74c0.72,0.7-0.8-1.43-0.31-0.42c0.1,0.17,0.2,0.35,0.29,0.54c0.27,0.6,0.18,0.37-0.28-0.67
					c0.1,0.39,0.28,0.79,0.42,1.18c1,2.75,2.64,5.18,5.34,6.51c3.98,1.96,8.35,0.93,10.79-2.87c1.83-2.84,0.68-7.25-2.31-8.83
					c-3.2-1.69-6.87-0.72-8.83,2.31c1.41-2.18,4.31-3.18,6.6-1.88c-0.91-0.51,1.06,1.17,0.31,0.29c-0.77-0.91,0.78,1.35,0.23,0.32
					c0.94,1.76,0.35,0.84,0.15,0.28c-0.77-2.16-1.62-4.24-3.29-5.87c-2.69-2.63-6.67-3.07-9.98-1.42c-1.87,0.93-3.45,2.54-4.76,4.15
					c-2.83,3.48-4.85,7.31-6.25,11.58c-0.3,0.9-0.53,1.83-0.81,2.74c-0.11,0.35-0.32,0.78-0.38,1.15c0.41-0.92,0.47-1.07,0.17-0.45
					c-0.06,0.11-0.13,0.23-0.19,0.34c-0.38,0.57-0.28,0.45,0.3-0.36c-0.47,0.45-0.28,0.31,0.58-0.4c-0.92,0.58,1.52-0.38,0.39-0.13
					c-1.19,0.26,1.68-0.09,0.49-0.09c0.77-0.02,1.47,0.18,2.12,0.58c0.87,0.77,1.08,0.92,0.61,0.45c0,3.04,0,6.08,0,9.12
					c-1.45,1.2-0.57,0.42-0.17,0.17c0.29-0.19,0.59-0.36,0.9-0.52c0.15-0.08,0.31-0.16,0.47-0.23c0.45-0.21,0.21-0.1-0.74,0.31
					c0.32-0.04,0.68-0.24,0.99-0.34c1.27-0.39,2.56-0.52,3.84-0.8c-1.94,0.43-0.77,0.1-0.26,0.04c0.36-0.05,0.73-0.09,1.1-0.13
					c1.18-0.14,2.36-0.3,3.54-0.46c1.38-0.2,2.75-0.43,4.09-0.84c3.59-1.08,6.37-3.04,9.21-5.42c0.5-0.42,1.01-0.83,1.51-1.25
					c0.96-0.81-1.15,0.82-0.2,0.15c0.28-0.2,0.56-0.4,0.85-0.58c0.29-0.18,0.58-0.34,0.87-0.51c0.97-0.56-1.48,0.43-0.33,0.12
					c0.26-0.07,0.54-0.13,0.79-0.22c0.51-0.11,0.21-0.08-0.9,0.1c0.23-0.02,0.45-0.03,0.68-0.03c2.73-0.06,5.59-1.95,6.22-4.74
					c0.68-3-0.55-5.52-2.97-7.29c-5.98-4.38-11.97-8.77-17.95-13.15c-1.27-0.93-3.52-1.05-4.97-0.65c-1.5,0.41-3.12,1.57-3.86,2.97
					C217.81,368.77,218.99,372.1,221.9,374.24L221.9,374.24z"/>
			</g>
		</g>
		<g>
			<path class="st3" d="M480.34,60.81l64.12,64.12c3.09,3.09,3.09,8.09,0,11.17L327.08,353.48c-3.09,3.09-8.09,3.09-11.17,0
				l-65.44-65.44c-3.1-3.1-3.08-8.13,0.03-11.21L437.55,92.04l31.65-31.27C472.29,57.72,477.27,57.73,480.34,60.81z"/>
			
				<rect x="440.94" y="83.68" transform="matrix(0.7071 0.7071 -0.7071 0.7071 221.6493 -316.523)" class="st4" width="103.92" height="51.23"/>
		</g>
		<path class="st5" d="M481.78,60.07l64.12,64.12c3.09,3.09,3.09,8.09,0,11.17L328.51,352.74c-3.09,3.09-8.09,3.09-11.17,0
			L251.9,287.3c-3.1-3.1-3.08-8.13,0.03-11.21L438.99,91.3l31.65-31.27C473.73,56.98,478.71,56.99,481.78,60.07z"/>
		<line class="st5" x1="513.7" y1="164.77" x2="439.61" y2="90.68"/>
		<line class="st5" x1="293.2" y1="283.69" x2="439.99" y2="136.89"/>
		<line class="st5" x1="322.93" y1="313.42" x2="470.34" y2="166"/>
		<line class="st5" x1="222.58" y1="354.3" x2="252.93" y2="384.65"/>
	</g>
</g>
</svg>
