<svg id="Camada_1" data-name="Camada 1" xmlns="http://www.w3.org/2000/svg" viewBox="0 0 420.12 443.76">
<defs>
<style>.cls-1{fill:#2b3336;}.cls-2{fill:#5c94ce;stroke:#5c94ce;stroke-miterlimit:10;}</style>
</defs>
<path class="cls-1" d="M508.16,286C508.16,402,414.11,496,298.1,496S88,402,88,286,182.09,75.92,298.1,75.92,508.16,170,508.16,286Zm-210.6-110.7A110.16,110.16,0,1,0,407.72,285.44,110.16,110.16,0,0,0,297.56,175.28Z" transform="translate(-88.04 -75.92)"/>
<path class="cls-2" d="M404.72,316.16h100.8a218.84,218.84,0,0,1-37.92,95.52L397,319Z" transform="translate(-88.04 -75.92)"/>
<polygon class="cls-1" points="204.32 239.76 315.68 239.76 418.4 385.2 352.16 443.76 204.32 239.76"/>
</svg>